<?xml version="1.0" encoding="UTF-8"?>
<svg id="Layer_2" data-name="Layer 2" xmlns="http://www.w3.org/2000/svg" xmlns:xlink="http://www.w3.org/1999/xlink" viewBox="0 0 207.33 229.32">
  <defs>
    <style>
      .cls-1 {
        fill: #94a3a5;
      }

      .cls-1, .cls-2, .cls-3, .cls-4, .cls-5 {
        stroke-width: 0px;
      }

      .cls-2 {
        fill: url(#linear-gradient);
      }

      .cls-3 {
        fill: #bcc2c6;
      }

      .cls-4 {
        fill: url(#linear-gradient-2);
      }

      .cls-5 {
        fill: #7e8b8c;
      }
    </style>
    <linearGradient id="linear-gradient" x1="103.67" y1="146.25" x2="103.67" y2="119.08" gradientUnits="userSpaceOnUse">
      <stop offset="0" stop-color="#46a79c"/>
      <stop offset="1" stop-color="#70e093"/>
    </linearGradient>
    <linearGradient id="linear-gradient-2" x1="0" y1="172.49" x2="207.33" y2="172.49" gradientUnits="userSpaceOnUse">
      <stop offset="0" stop-color="#70e093"/>
      <stop offset="1" stop-color="#46a79c"/>
    </linearGradient>
  </defs>
  <g id="Layer_1-2" data-name="Layer 1">
    <g>
      <path class="cls-5" d="m141.53,109.01c-10.05,8.96-23.33,14.39-37.85,14.39s-27.8-5.44-37.87-14.39c11.73-4.6,24.51-7.13,37.87-7.13s26.12,2.53,37.85,7.13Z"/>
      <path class="cls-1" d="m146.1,110.93c-9.07,15.53-24.68,25.78-42.43,25.78s-33.36-10.25-42.43-25.78c1.5-.67,3.03-1.31,4.55-1.91,10.08,8.96,23.35,14.39,37.87,14.39s27.8-5.44,37.85-14.39c1.55.6,3.07,1.25,4.58,1.91Z"/>
      <path class="cls-2" d="m155.38,115.67c-9.07,19.48-28.81,32.98-51.71,32.98s-42.64-13.49-51.71-32.98c3.01-1.72,6.1-3.31,9.28-4.75,9.07,15.53,24.68,25.78,42.43,25.78s33.36-10.25,42.43-25.78c3.18,1.44,6.27,3.03,9.28,4.75Z"/>
      <path class="cls-4" d="m207.33,205.53c0,.12,0,.25,0,.37-.05,13-10.87,23.41-23.87,23.41H23.87C10.87,229.32.05,218.91,0,205.91c0-.12,0-.25,0-.37,0-38.41,20.9-71.94,51.97-89.86,9.07,19.48,28.81,32.98,51.71,32.98s42.64-13.49,51.71-32.98c31.04,17.92,51.94,51.45,51.94,89.86Z"/>
      <circle class="cls-3" cx="103.67" cy="57.04" r="57.04"/>
    </g>
  </g>
</svg>